<?xml version="1.0" standalone="no"?>
<!DOCTYPE svg PUBLIC "-//W3C//DTD SVG 20010904//EN"
 "http://www.w3.org/TR/2001/REC-SVG-20010904/DTD/svg10.dtd">
<svg version="1.0" xmlns="http://www.w3.org/2000/svg"
 width="128.000000pt" height="128.000000pt" viewBox="0 0 128.000000 128.000000"
 preserveAspectRatio="xMidYMid meet">

<g transform="translate(0.000000,128.000000) scale(0.100000,-0.100000)"
fill="#000000" stroke="none">
<path d="M612 1214 c-20 -13 -22 -24 -22 -94 0 -74 2 -81 25 -96 23 -15 27
-15 50 0 23 15 25 22 25 96 0 70 -2 81 -22 94 -12 9 -25 16 -28 16 -3 0 -16
-7 -28 -16z"/>
<path d="M227 1052 c-28 -31 -20 -55 36 -110 55 -54 84 -64 111 -36 28 28 18
57 -37 112 -56 55 -83 64 -110 34z"/>
<path d="M942 1017 c-54 -55 -64 -84 -36 -111 28 -28 57 -18 112 37 55 56 64
83 34 110 -31 28 -55 20 -110 -36z"/>
<path d="M540 944 c-142 -52 -229 -183 -218 -327 26 -318 443 -407 597 -127
33 60 36 71 36 150 -1 72 -5 93 -27 136 -39 75 -70 107 -138 143 -76 41 -179
51 -250 25z m214 -124 c20 -14 49 -43 64 -64 24 -35 27 -49 27 -116 0 -67 -3
-81 -27 -116 -15 -21 -44 -50 -65 -64 -31 -21 -48 -25 -113 -25 -65 0 -82 4
-113 25 -81 55 -118 161 -88 253 14 41 72 104 115 123 50 23 155 14 200 -16z"/>
<path d="M64 665 c-15 -23 -15 -27 0 -50 15 -23 22 -25 96 -25 74 0 81 2 96
25 15 23 15 27 0 50 -15 23 -22 25 -96 25 -74 0 -81 -2 -96 -25z"/>
<path d="M1024 665 c-15 -23 -15 -27 0 -50 15 -23 22 -25 96 -25 74 0 81 2 96
25 15 23 15 27 0 50 -15 23 -22 25 -96 25 -74 0 -81 -2 -96 -25z"/>
<path d="M262 337 c-54 -55 -64 -84 -36 -111 28 -28 57 -18 112 37 54 55 64
84 36 111 -28 28 -57 18 -112 -37z"/>
<path d="M906 374 c-28 -28 -18 -57 37 -112 56 -55 83 -64 110 -34 28 31 20
55 -36 110 -55 54 -84 64 -111 36z"/>
<path d="M612 254 c-20 -13 -22 -24 -22 -94 0 -74 2 -81 25 -96 23 -15 27 -15
50 0 23 15 25 22 25 96 0 70 -2 81 -22 94 -12 9 -25 16 -28 16 -3 0 -16 -7
-28 -16z"/>
</g>
</svg>
